<?xml version="1.0" encoding="UTF-8"?>
<svg id="Layer_2" data-name="Layer 2" xmlns="http://www.w3.org/2000/svg" viewBox="0 0 5000 5000">
  <defs>
    <style>
      .cls-1 {
        fill: #fff;
        stroke-width: 0px;
      }
    </style>
  </defs>
  <g id="Layer_1-2" data-name="Layer 1">
    <path class="cls-1" d="m1904.94,2043.33c103.94-111.51,155.94-257.76,155.94-403.9s-51.99-292.3-155.91-403.79c-103.89-111.47-240.24-167.31-376.49-167.31s-272.93,55.72-376.84,166.97c-103.71,111.45-155.65,257.72-155.69,404.13.04,146.14,52.04,292.39,155.96,403.83l2052.29,2201.42-704.22,755.33L447.7,2798.68C149.28,2478.58,0,2058.95,0,1639.42S149.28,800.27,447.7,480.19C746.12,160.14,1137.33,0,1528.49,0c345.05,0,690.13,124.64,971.52,373.76C2781.54,124.61,3126.46,0,3471.49,0c391.09,0,782.21,160.08,1080.67,480.1,298.57,320.27,447.84,739.85,447.84,1159.43h-.62c-.01,419.73-149.06,839.35-447.03,1159.04l-595.1,638.3-595.03-638.19c-103.9-111.45-240.26-167.27-376.48-167.27s-273.15,55.82-377.07,167.27l-108.97,116.76-704.06-755,109.31-117.11Zm2319.58,638.17l-376.51-403.9c-238.46-255.76-550.62-383.68-862.28-383.68v.67c-263.55,0-527.21,91.11-746.21,273.23l270.73,290.33c142.86-105.39,309.26-158.22,475.49-158.22,215.29,0,430.72,88.28,594.98,264.41l376.54,403.9,267.27-286.73Zm-158.07-638.24l369.67,396.58c170.27-235.23,255.44-518.01,255.44-800.36h-.6c0-334.73-119.05-669.48-357.1-924.82-238.23-255.5-550.34-383.17-862.37-383.17-266.33,0-532.77,93.1-753.13,279.11,101.4,135.02,181.69,285.73,238.55,446.01,57.37,161.79,90.73,333.57,98.11,508.84,368.01,17.74,731.03,177.06,1011.43,477.82Zm-1319.44-460.14c-5.72-140.61-32.55-278.61-78.66-408.69-60.45-170.55-154.39-327.74-277.6-459.86-238.03-255.35-550.19-383.09-862.26-383.09s-624.3,127.74-862.33,383.05c-238.06,255.34-357.09,590.17-357.09,924.9s119.03,669.6,357.09,924.9l1833.85,1967.02,267.26-286.67-1833.82-1967.08c-164.24-176.14-246.51-407.23-246.51-638.17s82.27-461.33,246.51-637.56c158.51-170.02,370.79-265.01,595.03-265.01s430.72,88.23,594.96,264.45c164.24,176.17,246.51,407.15,246.54,638.12-.04,21.1-.74,42.15-2.14,63.17,121.95-57.73,249.49-97.55,379.15-119.48Z"/>
  </g>
</svg>